<svg width="100" height="100" viewBox="0 0 100 100" fill="none" xmlns="http://www.w3.org/2000/svg">
<rect width="100" height="100" rx="16" fill="black"/>
<g clip-path="url(#clip0_1997_1163)">
<path d="M26.3864 34C26.3963 34.478 26.4161 34.9606 26.4211 35.4385C26.4261 36.1969 26.4211 36.9552 26.4211 37.7595H25.9844C22.099 37.7595 18.2086 37.7503 14.3231 37.7641C12.6905 37.7687 11.053 37.8744 9.50974 38.4397C8.94901 38.6466 8.41308 38.9499 7.93174 39.2946C7.29658 39.7542 6.97899 40.4206 6.93929 41.1835C6.90952 41.6937 6.93433 42.2039 6.93433 42.7232C7.5695 42.5118 8.16993 42.2912 8.78525 42.1211C10.6262 41.611 12.5218 41.4685 14.4273 41.4547C17.0325 41.4363 19.6427 41.4547 22.2479 41.4547H22.5059V45.2004C22.3521 45.2004 22.2181 45.2004 22.0791 45.2004C19.2358 45.2004 16.3974 45.1775 13.554 45.2234C11.9065 45.2464 10.2739 45.4394 8.77037 46.1702C7.2271 46.9193 6.57705 48.3441 7.07327 49.8378C7.35612 50.6789 7.98137 51.2304 8.78029 51.6211C9.99108 52.2185 11.311 52.4208 12.6508 52.5173C13.4795 52.577 14.3132 52.5862 15.1469 52.5908C18.7495 52.6 22.357 52.5908 25.9596 52.5908H26.3963V56.3365H26.0092C22.1685 56.3365 18.3277 56.3549 14.4918 56.332C12.1993 56.3182 9.92161 56.1297 7.74318 55.3484C6.01135 54.7234 4.5723 53.7582 3.71879 52.1312C3.35158 51.4326 3.15309 50.6927 3.05385 49.9205C3.04392 49.824 3.00919 49.7321 2.98438 49.6402V40.7102C3.00919 40.6182 3.04392 40.5263 3.05385 40.4298C3.16302 39.5795 3.39624 38.766 3.83292 38.0123C4.66658 36.5738 5.98158 35.6775 7.54469 35.0801C8.99367 34.5239 10.5121 34.2712 12.0603 34.1333C12.6062 34.0873 13.1471 34.0414 13.6929 34H26.3764H26.3864Z" fill="white"/>
<path d="M43.0258 34C43.5716 34.046 44.1125 34.0873 44.6584 34.1333C46.4051 34.2895 48.122 34.5883 49.7248 35.3053C52.3548 36.4864 53.6599 38.4811 53.7244 41.2341C53.7542 42.4566 53.5656 43.6424 52.9801 44.7454C52.1712 46.2621 50.8364 47.1997 49.2237 47.8248C47.596 48.4544 45.889 48.7761 44.1473 48.8129C40.9913 48.8864 37.8303 48.8726 34.6743 48.8956C34.5354 48.8956 34.4014 48.8956 34.2277 48.8956V56.3136H30.3373V45.1729H30.774C34.5453 45.1729 38.3117 45.1821 42.083 45.1729C43.6312 45.1683 45.1794 45.0855 46.683 44.6719C47.596 44.4191 48.4495 44.0698 49.0946 43.3666C50.1714 42.1947 50.0325 40.3103 48.8019 39.29C47.9037 38.5408 46.8021 38.2099 45.6608 38.0491C44.5839 37.8974 43.4923 37.7871 42.4055 37.7779C38.53 37.7457 34.6545 37.7641 30.779 37.7641H30.3472C30.3323 37.6952 30.3125 37.6446 30.3125 37.5895C30.3125 36.4726 30.3125 35.3512 30.3125 34.2344C30.3125 34.1563 30.3323 34.0827 30.3472 34.0046H43.0308L43.0258 34Z" fill="white"/>
<path d="M88.8308 34V37.7595H88.3941C84.5781 37.7595 80.7622 37.7595 76.9462 37.7595C75.8247 37.7595 74.7181 37.8928 73.6562 38.2375C71.5423 38.9223 70.2323 40.3333 69.6765 42.3739C69.1703 44.2353 69.1703 46.1196 69.6765 47.9764C70.3613 50.4721 72.113 51.906 74.7429 52.3748C75.4972 52.5081 76.2812 52.5724 77.0504 52.577C80.8217 52.5954 84.5881 52.5862 88.3594 52.5862H88.806V56.3319H88.414C84.6079 56.3319 80.8068 56.3457 77.0008 56.3274C74.9613 56.3182 72.9516 56.0746 71.056 55.2841C68.5302 54.2316 66.8778 52.4162 66.1086 49.9297C65.0963 46.6436 65.0814 43.3253 66.2376 40.0667C67.3641 36.8955 69.8353 35.1122 73.2046 34.4136C74.1177 34.2252 75.0605 34.1701 75.9885 34.0552C76.0877 34.0414 76.187 34.0184 76.2862 34H88.8308Z" fill="white"/>
<path d="M61.4849 34C61.4948 34.1425 61.5196 34.2895 61.5196 34.432C61.5196 41.5834 61.5196 48.7394 61.5196 55.8907V56.309H57.6094V34H61.4849Z" fill="white"/>
<path d="M90.4438 64.9996L89.2578 64.5998C89.4365 64.2781 89.5754 64.0161 89.7143 63.7679C89.9724 63.8874 90.1907 64.0207 90.4339 64.085C90.5877 64.1264 90.7911 64.1126 90.94 64.0529C91.2179 63.9471 91.2328 63.6484 90.9747 63.5059C90.7763 63.3956 90.543 63.3405 90.3197 63.2715C89.6349 63.0601 89.4216 62.789 89.4513 62.1593C89.4811 61.571 89.8831 61.1022 90.4785 61.0011C91.0393 60.9092 91.5702 61.0149 92.0863 61.2953C91.9474 61.5526 91.8134 61.7962 91.6844 62.0398C90.9896 61.7135 90.7117 61.7411 90.5331 62.1961C90.6472 62.2742 90.7663 62.3753 90.9003 62.4397C91.0244 62.4994 91.1683 62.5224 91.3023 62.5637C92.0019 62.7798 92.2649 63.0877 92.2451 63.676C92.2252 64.347 91.8779 64.7698 91.203 64.9307C91.1137 64.9537 91.0293 64.9812 90.94 65.0088H90.4488L90.4438 64.9996Z" fill="white"/>
<path d="M34.2832 64.9982C33.8912 64.8144 33.4446 64.6949 33.1122 64.4375C32.3827 63.8814 32.209 62.8657 32.6358 62.0614C33.0576 61.2617 34.0401 60.8113 34.968 60.9997C35.1268 61.0319 35.2807 61.0824 35.4543 61.133V62.1855C35.1169 62.1073 34.7696 61.9649 34.4222 61.9649C34.2039 61.9649 33.9359 62.1303 33.7672 62.2958C33.395 62.6634 33.4198 63.3069 33.7721 63.6746C34.179 64.102 34.7695 64.102 35.4444 63.6516V64.7914L34.7695 64.9982H34.2783H34.2832Z" fill="white"/>
<path d="M96.9975 36.082H96.5162V34.6297L96.4467 34.6159C96.2631 35.0847 96.0844 35.558 95.8909 36.059L95.6031 36.082C95.4245 35.6178 95.2508 35.1674 95.0821 34.7216H95.0076V36.0682H94.5312V34H95.2359C95.3996 34.3723 95.5634 34.7491 95.752 35.1812C95.9256 34.7446 96.0745 34.3723 96.2234 34H96.9975V36.082Z" fill="white"/>
<path d="M94.2529 34V34.4136L93.6178 34.455V36.0682H93.1017V34.4688L92.4516 34.409L92.4219 34H94.2529Z" fill="white"/>
<path d="M54.1487 62.832L53.2555 64.8496H52.8189C52.536 64.1878 52.2482 63.5076 51.9604 62.832H51.8959C51.7917 63.4938 51.6875 64.1556 51.5783 64.8358H50.5312C50.7546 63.5719 50.9779 62.3218 51.2061 61.0625H52.2383C52.4963 61.6967 52.7543 62.3356 53.0422 63.0526C53.3448 62.3448 53.6128 61.7105 53.8907 61.0671H54.9377C55.1362 62.3264 55.3347 63.5765 55.5382 64.8496H54.4911C54.3968 64.1786 54.3075 63.5122 54.2132 62.8457L54.1438 62.832H54.1487Z" fill="white"/>
<path d="M27.53 62.6835V64.8436H26.5078V61.0703H27.535C28.1255 61.7919 28.7408 62.5364 29.4008 63.3453V61.0795H30.4578V64.8436H29.3958C28.8053 64.1221 28.2049 63.3867 27.5995 62.6513L27.5201 62.6835H27.53Z" fill="white"/>
<path d="M10.3878 61.0234C11.0478 61.051 11.6978 61.0234 12.3231 61.1246C13.3205 61.2808 13.9556 62.2046 13.8465 63.2249C13.7522 64.1119 12.8888 64.8519 11.9211 64.8611C11.415 64.8657 10.9138 64.8611 10.3828 64.8611V61.0234H10.3878ZM11.4547 61.9334V64.0016C12.2982 64.0522 12.7994 63.6432 12.7796 62.9446C12.7597 62.2598 12.2585 61.8691 11.4547 61.9334Z" fill="white"/>
<path d="M42.0206 64.8632V61.0117C42.7203 61.0577 43.4199 61.0209 44.0799 61.1588C45.0625 61.361 45.6381 62.3216 45.4793 63.3097C45.3403 64.1646 44.4868 64.8586 43.544 64.8632C43.0428 64.8632 42.5367 64.8632 42.0156 64.8632H42.0206ZM43.0775 64.0129C43.5936 64.0313 44.0303 63.9486 44.2685 63.5211C44.4968 63.1213 44.4819 62.6939 44.204 62.317C43.9311 61.9539 43.5291 61.8804 43.0775 61.9217V64.0129Z" fill="white"/>
<path d="M72.5364 64.8526H71.4844V61.0195C72.194 61.0563 72.8937 61.0517 73.5784 61.1482C74.0896 61.2172 74.3625 61.6032 74.3972 62.0674C74.4419 62.6879 74.2484 63.0372 73.7323 63.267C73.6926 63.2854 73.6529 63.3083 73.5834 63.3497C73.9804 63.8415 74.3674 64.3241 74.7843 64.8434H73.4742C73.1914 64.4252 72.8986 63.9977 72.6108 63.5657L72.5364 63.5749V64.8526ZM72.5413 62.7568C73.1219 62.7338 73.3601 62.573 73.3154 62.2421C73.2758 61.9433 72.9929 61.8054 72.5413 61.879V62.7568Z" fill="white"/>
<path d="M61.2748 64.8574H60.1583L59.8953 64.2278H58.496L58.2131 64.8528H57.1016C57.6127 63.5843 58.1188 62.3342 58.625 61.0703H59.7812C60.2774 62.3204 60.7736 63.5797 61.2798 64.8574H61.2748ZM59.1956 62.2699C59.0418 62.6973 58.9177 63.0512 58.7838 63.4327H59.5926C59.4686 63.0696 59.3495 62.7249 59.1956 62.2699Z" fill="white"/>
<path d="M24.6811 64.851H23.5646L23.2966 64.2213H21.9022L21.6194 64.8464H20.5078C21.0239 63.5687 21.53 62.314 22.0362 61.0547H23.1825C23.6787 62.3094 24.1749 63.5641 24.6811 64.8464V64.851ZM23.0138 63.4262L22.6366 62.36L22.5622 62.3691L22.195 63.4262H23.0138Z" fill="white"/>
<path d="M5.91119 61.0625H7.05747L8.55607 64.8542H7.43956L7.17656 64.2291H5.77224L5.49932 64.8496H4.38281L5.91119 61.0625ZM6.0799 63.4157H6.88875L6.48185 62.2712L6.0799 63.4157Z" fill="white"/>
<path d="M80.9162 61.0625H82.0624C82.5587 62.3126 83.0549 63.5673 83.561 64.8496H82.4445C82.3552 64.6428 82.2609 64.4314 82.1666 64.2154H80.7871L80.4944 64.8496H79.3828C79.8989 63.5719 80.405 62.3172 80.9112 61.0625H80.9162ZM81.5265 62.3724L81.4521 62.3632C81.328 62.7171 81.2089 63.0664 81.0799 63.4294H81.8888C81.7597 63.0572 81.6456 62.7171 81.5265 62.3724Z" fill="white"/>
<path d="M19.6064 61.0664L17.9093 64.8535H17.0707L15.3984 61.0664H16.5447L17.4975 63.3322L18.4651 61.0664H19.6064Z" fill="white"/>
<path d="M68.1351 64.0255H69.3111V64.8482H67.0781V61.0703H69.3161V61.9114H68.1301V62.5226H69.2714V63.3729H68.1351V64.0255Z" fill="white"/>
<path d="M37.625 61.0703H39.863V61.9068H38.672V62.5135H39.7935V63.3821H38.672V64.0118H39.858V64.8436H37.625V61.0703Z" fill="white"/>
<path d="M63.3152 61.9022H62.4766V61.0703H65.2008V61.9068H64.3672V64.8436H63.3152V61.9022Z" fill="white"/>
<path d="M85.3906 61.0703H86.4079V64.0163H87.6435V64.8528H85.3906V61.0703Z" fill="white"/>
<path d="M77.5656 64.8475H76.5781V61.0742H77.5656V64.8475Z" fill="white"/>
</g>
<defs>
<clipPath id="clip0_1997_1163">
<rect width="94" height="31" fill="white" transform="translate(3 34)"/>
</clipPath>
</defs>
</svg>
